<?xml version="1.0" encoding="UTF-8" standalone="no"?>
<!DOCTYPE svg PUBLIC "-//W3C//DTD SVG 1.1//EN" "http://www.w3.org/Graphics/SVG/1.1/DTD/svg11.dtd">
<svg width="100%" height="100%" viewBox="0 0 1024 1024" version="1.1" xmlns="http://www.w3.org/2000/svg" xmlns:xlink="http://www.w3.org/1999/xlink" xml:space="preserve" xmlns:serif="http://www.serif.com/" style="fill-rule:evenodd;clip-rule:evenodd;stroke-miterlimit:1.5;">
    <g transform="matrix(1,0,0,1,-1280,-1280)">
        <g id="Paste" transform="matrix(1,0,0,1,1280,1280)">
            <rect x="0" y="0" width="1024" height="1024" style="fill:none;"/>
            <g id="Paste1" serif:id="Paste" transform="matrix(0.571025,0,0,0.571025,184.007,197.366)">
                <g id="Clipboard">
                    <g transform="matrix(0.406687,0,0,0.370844,70.0376,-82.6092)">
                        <rect x="0" y="0" width="2480.32" height="3507.87" style="fill:rgb(250,125,54);stroke:rgb(57,57,57);stroke-width:224.99px;"/>
                    </g>
                    <g id="Sheet" transform="matrix(1.18232,0,0,1.18232,-30.954,-37.5199)">
                        <g transform="matrix(0.246303,0,0,0.246303,206.545,80)">
                            <rect x="0" y="0" width="2480.32" height="3507.87" style="fill:rgb(235,235,235);stroke:rgb(57,57,57);stroke-width:240.19px;"/>
                        </g>
                        <g transform="matrix(1.17737,0,0,1,-61.936,-1577.91)">
                            <path d="M697.774,1842.33L697.774,1773.49L277.172,1773.49L277.172,1842.33L697.774,1842.33Z" style="fill:rgb(57,57,57);"/>
                        </g>
                        <g transform="matrix(1.17737,0,0,1,-61.936,-1469.99)">
                            <path d="M697.774,1842.33L697.774,1773.49L277.172,1773.49L277.172,1842.33L697.774,1842.33Z" style="fill:rgb(57,57,57);"/>
                        </g>
                        <g transform="matrix(0.588685,0,0,1,110.488,-1254.15)">
                            <path d="M713.499,1842.33L713.499,1773.49L261.446,1773.49L261.446,1842.33L713.499,1842.33Z" style="fill:rgb(57,57,57);"/>
                        </g>
                        <g transform="matrix(0.878408,0,0,1,25.6291,-1362.07)">
                            <path d="M703.126,1842.33L703.126,1773.49L271.819,1773.49L271.819,1842.33L703.126,1842.33Z" style="fill:rgb(57,57,57);"/>
                        </g>
                        <g transform="matrix(0.878408,0,0,1,25.6291,-1146.23)">
                            <path d="M703.126,1842.33L703.126,1773.49L271.819,1773.49L271.819,1842.33L703.126,1842.33Z" style="fill:rgb(57,57,57);"/>
                        </g>
                    </g>
                    <g id="Clip">
                        <g transform="matrix(1.76573,0,0,1.76573,-2604.9,-2429.09)">
                            <rect x="1671.9" y="1303.93" width="257.3" height="104.065" style="fill:rgb(220,220,220);"/>
                        </g>
                        <g transform="matrix(1.19789,0,0,0.925644,-1582.47,-1429.99)">
                            <rect x="1671.9" y="1303.93" width="257.3" height="104.065" style="fill:rgb(220,220,220);"/>
                        </g>
                    </g>
                </g>
            </g>
        </g>
    </g>
</svg>
