<?xml version="1.0" encoding="UTF-8" standalone="no"?>
<!DOCTYPE svg PUBLIC "-//W3C//DTD SVG 1.1//EN" "http://www.w3.org/Graphics/SVG/1.1/DTD/svg11.dtd">
<svg width="100%" height="100%" viewBox="0 0 1024 1024" version="1.1" xmlns="http://www.w3.org/2000/svg" xmlns:xlink="http://www.w3.org/1999/xlink" xml:space="preserve" xmlns:serif="http://www.serif.com/" style="fill-rule:evenodd;clip-rule:evenodd;stroke-miterlimit:1.5;">
    <g transform="matrix(1,0,0,1,0,-2560)">
        <g id="Previous-page" serif:id="Previous page" transform="matrix(1,0,0,1,0,2560)">
            <rect x="0" y="0" width="1024" height="1024" style="fill:none;"/>
            <g id="Previous" transform="matrix(0.887059,0,0,0.887139,114.454,8.25815)">
                <g id="Sheet" transform="matrix(1.00197,0,0,1.00197,61.986,54.8175)">
                    <g transform="matrix(0.246303,0,0,0.246303,206.545,80)">
                        <rect x="0" y="0" width="2480.32" height="3507.87" style="fill:rgb(235,235,235);stroke:rgb(57,57,57);stroke-width:228.39px;"/>
                    </g>
                    <g transform="matrix(0.941833,0,0,1,53.5637,-1577.91)">
                        <rect x="276.174" y="1772.31" width="422.597" height="71.186" style="fill:rgb(57,57,57);"/>
                    </g>
                    <g transform="matrix(0.941833,0,0,1,53.5637,-1469.99)">
                        <rect x="276.174" y="1772.31" width="422.597" height="71.186" style="fill:rgb(57,57,57);"/>
                    </g>
                    <g transform="matrix(0.470916,0,0,1,191.494,-1254.15)">
                        <rect x="259.451" y="1772.31" width="456.043" height="71.186" style="fill:rgb(57,57,57);"/>
                    </g>
                    <g transform="matrix(0.702679,0,0,1,123.611,-1362.07)">
                        <rect x="270.482" y="1772.31" width="433.981" height="71.186" style="fill:rgb(57,57,57);"/>
                    </g>
                    <g transform="matrix(0.702679,0,0,1,123.611,-1146.23)">
                        <rect x="270.482" y="1772.31" width="433.981" height="71.186" style="fill:rgb(57,57,57);"/>
                    </g>
                </g>
                <g transform="matrix(1.88707,0,0,2.59456,-226.275,-8117.83)">
                    <path d="M328.513,3457.32L328.513,3502.7L128,3411.94L328.513,3321.19L328.513,3366.57L511.256,3366.57L511.256,3457.32L328.513,3457.32Z" style="fill:rgb(250,125,54);"/>
                </g>
            </g>
        </g>
    </g>
</svg>
