<?xml version="1.0" encoding="UTF-8" standalone="no"?>
<!DOCTYPE svg PUBLIC "-//W3C//DTD SVG 1.1//EN" "http://www.w3.org/Graphics/SVG/1.1/DTD/svg11.dtd">
<svg width="100%" height="100%" viewBox="0 0 1024 1024" version="1.1" xmlns="http://www.w3.org/2000/svg" xmlns:xlink="http://www.w3.org/1999/xlink" xml:space="preserve" xmlns:serif="http://www.serif.com/" style="fill-rule:evenodd;clip-rule:evenodd;stroke-linejoin:round;stroke-miterlimit:2;">
    <g transform="matrix(1,0,0,1,-2560,-1280)">
        <g id="Cut" transform="matrix(1,0,0,1,2560,1280)">
            <rect x="0" y="0" width="1024" height="1024" style="fill:none;"/>
            <g id="Scissors" transform="matrix(0.910855,0,0,0.910855,136.406,43.6255)">
                <g transform="matrix(1,0,0,1,5.96672,6.12654)">
                    <g transform="matrix(0.609876,0.221977,-0.458227,1.25897,-589.349,-2386.6)">
                        <path d="M3027.53,1948.11L2827.23,1948.11L2877.3,1461.5L2877.3,1461.5C2933.4,1461.5 2979.65,1482.81 2982.44,1509.95C2995.11,1633.05 3027.53,1948.11 3027.53,1948.11Z" style="fill:rgb(57,57,57);"/>
                    </g>
                    <g transform="matrix(0.783969,0,0,1.32076,-1979.31,-1945.94)">
                        <path d="M2851.27,1979.2C2941.38,1979.2 3014.54,2022.62 3014.54,2076.11C3014.54,2129.6 2941.38,2173.03 2851.27,2173.03C2761.16,2173.03 2688,2129.6 2688,2076.11C2688,2022.62 2761.16,1979.2 2851.27,1979.2ZM2851.27,2032.5C2891.82,2032.5 2924.74,2052.04 2924.74,2076.11C2924.74,2100.18 2891.82,2119.72 2851.27,2119.72C2810.72,2119.72 2777.8,2100.18 2777.8,2076.11C2777.8,2052.04 2810.72,2032.5 2851.27,2032.5Z" style="fill:rgb(248,248,248);"/>
                        <path d="M2851.27,1979.2C2941.38,1979.2 3014.54,2022.62 3014.54,2076.11C3014.54,2129.6 2941.38,2173.03 2851.27,2173.03C2761.16,2173.03 2688,2129.6 2688,2076.11C2688,2022.62 2761.16,1979.2 2851.27,1979.2ZM2851.27,2032.5C2891.82,2032.5 2924.74,2052.04 2924.74,2076.11C2924.74,2100.18 2891.82,2119.72 2851.27,2119.72C2810.72,2119.72 2777.8,2100.18 2777.8,2076.11C2777.8,2052.04 2810.72,2032.5 2851.27,2032.5Z" style="fill:rgb(250,125,54);"/>
                    </g>
                </g>
                <g transform="matrix(-1,0,0,1,818.739,6.12654)">
                    <g transform="matrix(0.609876,0.221977,-0.458227,1.25897,-589.349,-2386.6)">
                        <path d="M3027.53,1948.11L2827.23,1948.11L2877.3,1461.5L2877.3,1461.5C2933.4,1461.5 2979.65,1482.81 2982.44,1509.95C2995.11,1633.05 3027.53,1948.11 3027.53,1948.11Z" style="fill:rgb(57,57,57);"/>
                    </g>
                    <g transform="matrix(0.783969,0,0,1.32076,-1979.31,-1945.94)">
                        <path d="M2851.27,1979.2C2941.38,1979.2 3014.54,2022.62 3014.54,2076.11C3014.54,2129.6 2941.38,2173.03 2851.27,2173.03C2761.16,2173.03 2688,2129.6 2688,2076.11C2688,2022.62 2761.16,1979.2 2851.27,1979.2ZM2851.27,2032.5C2891.82,2032.5 2924.74,2052.04 2924.74,2076.11C2924.74,2100.18 2891.82,2119.72 2851.27,2119.72C2810.72,2119.72 2777.8,2100.18 2777.8,2076.11C2777.8,2052.04 2810.72,2032.5 2851.27,2032.5Z" style="fill:rgb(248,248,248);"/>
                        <path d="M2851.27,1979.2C2941.38,1979.2 3014.54,2022.62 3014.54,2076.11C3014.54,2129.6 2941.38,2173.03 2851.27,2173.03C2761.16,2173.03 2688,2129.6 2688,2076.11C2688,2022.62 2761.16,1979.2 2851.27,1979.2ZM2851.27,2032.5C2891.82,2032.5 2924.74,2052.04 2924.74,2076.11C2924.74,2100.18 2891.82,2119.72 2851.27,2119.72C2810.72,2119.72 2777.8,2100.18 2777.8,2076.11C2777.8,2052.04 2810.72,2032.5 2851.27,2032.5Z" style="fill:rgb(250,125,54);"/>
                    </g>
                </g>
            </g>
        </g>
    </g>
</svg>
