<?xml version="1.0" encoding="UTF-8" standalone="no"?>
<!DOCTYPE svg PUBLIC "-//W3C//DTD SVG 1.1//EN" "http://www.w3.org/Graphics/SVG/1.1/DTD/svg11.dtd">
<svg width="100%" height="100%" viewBox="0 0 1024 1024" version="1.1" xmlns="http://www.w3.org/2000/svg" xmlns:xlink="http://www.w3.org/1999/xlink" xml:space="preserve" xmlns:serif="http://www.serif.com/" style="fill-rule:evenodd;clip-rule:evenodd;stroke-linecap:round;stroke-linejoin:round;stroke-miterlimit:1.5;">
    <g transform="matrix(1,0,0,1,0,-2560)">
        <g id="Previous-page" serif:id="Previous page" transform="matrix(1,0,0,1,0,2560)">
            <rect x="0" y="0" width="1024" height="1024" style="fill:none;"/>
            <g id="Previous" transform="matrix(0.887059,0,0,0.887139,114.454,8.25815)">
                <g id="Sheet" transform="matrix(1.00197,0,0,1.00197,61.986,54.8175)">
                    <g transform="matrix(0.246303,0,0,0.246303,206.545,80)">
                        <rect x="0" y="0" width="2480.32" height="3507.87" style="fill:rgb(235,235,235);stroke:rgb(57,57,57);stroke-width:228.39px;"/>
                    </g>
                    <g transform="matrix(1.17737,0,0,1,-61.936,-1577.91)">
                        <path d="M682.048,1807.91C682.048,1799.13 675.994,1792 668.538,1792L306.408,1792C298.951,1792 292.897,1799.13 292.897,1807.91C292.897,1816.68 298.951,1823.81 306.408,1823.81L668.538,1823.81C675.994,1823.81 682.048,1816.68 682.048,1807.91Z" style="fill:none;stroke:rgb(57,57,57);stroke-width:36.05px;stroke-linejoin:bevel;stroke-miterlimit:4;"/>
                    </g>
                    <g transform="matrix(1.17737,0,0,1,-61.936,-1469.99)">
                        <path d="M682.048,1807.91C682.048,1799.13 675.994,1792 668.538,1792L306.408,1792C298.951,1792 292.897,1799.13 292.897,1807.91C292.897,1816.68 298.951,1823.81 306.408,1823.81L668.538,1823.81C675.994,1823.81 682.048,1816.68 682.048,1807.91Z" style="fill:none;stroke:rgb(57,57,57);stroke-width:36.05px;stroke-linejoin:bevel;stroke-miterlimit:4;"/>
                    </g>
                    <g transform="matrix(0.588685,0,0,1,110.488,-1254.15)">
                        <path d="M682.048,1807.91C682.048,1799.13 669.94,1792 655.027,1792L319.918,1792C305.005,1792 292.897,1799.13 292.897,1807.91C292.897,1816.68 305.005,1823.81 319.918,1823.81L655.027,1823.81C669.94,1823.81 682.048,1816.68 682.048,1807.91Z" style="fill:none;stroke:rgb(57,57,57);stroke-width:47.99px;stroke-linejoin:bevel;stroke-miterlimit:4;"/>
                    </g>
                    <g transform="matrix(0.878408,0,0,1,25.6291,-1362.07)">
                        <path d="M682.048,1807.91C682.048,1799.13 673.934,1792 663.939,1792L311.006,1792C301.012,1792 292.897,1799.13 292.897,1807.91C292.897,1816.68 301.012,1823.81 311.006,1823.81L663.939,1823.81C673.934,1823.81 682.048,1816.68 682.048,1807.91Z" style="fill:none;stroke:rgb(57,57,57);stroke-width:41.84px;stroke-linejoin:bevel;stroke-miterlimit:4;"/>
                    </g>
                    <g transform="matrix(0.878408,0,0,1,25.6291,-1146.23)">
                        <path d="M682.048,1807.91C682.048,1799.13 673.934,1792 663.939,1792L311.006,1792C301.012,1792 292.897,1799.13 292.897,1807.91C292.897,1816.68 301.012,1823.81 311.006,1823.81L663.939,1823.81C673.934,1823.81 682.048,1816.68 682.048,1807.91Z" style="fill:none;stroke:rgb(57,57,57);stroke-width:41.84px;stroke-linejoin:bevel;stroke-miterlimit:4;"/>
                    </g>
                </g>
                <g transform="matrix(1.98868,0,0,2.59456,-239.281,-8119.65)">
                    <path d="M308.536,3457.32L308.536,3502.7L128,3411.94L308.536,3321.19L308.536,3366.57L511.256,3366.57L511.256,3457.32L308.536,3457.32Z" style="fill:rgb(250,125,54);"/>
                </g>
            </g>
        </g>
    </g>
</svg>
