<?xml version="1.0" encoding="UTF-8" standalone="no"?>
<!DOCTYPE svg PUBLIC "-//W3C//DTD SVG 1.1//EN" "http://www.w3.org/Graphics/SVG/1.1/DTD/svg11.dtd">
<svg width="100%" height="100%" viewBox="0 0 1024 1024" version="1.1" xmlns="http://www.w3.org/2000/svg" xmlns:xlink="http://www.w3.org/1999/xlink" xml:space="preserve" xmlns:serif="http://www.serif.com/" style="fill-rule:evenodd;clip-rule:evenodd;stroke-linejoin:round;stroke-miterlimit:2;">
    <g transform="matrix(1,0,0,1,-1280,0)">
        <g id="Settings" transform="matrix(1,0,0,1,1280,0)">
            <rect x="0" y="0" width="1024" height="1024" style="fill:none;"/>
            <g transform="matrix(0.806633,0,0,0.917213,-933.486,42.3872)">
                <g id="Cog">
                    <path d="M1884.87,101.385C1823.56,90.659 1760.44,90.659 1699.13,101.385L1699.08,165.648C1656.72,174.438 1616.24,189.182 1579.22,209.311L1527.52,163.897C1475.54,194.442 1430.91,233.692 1396.18,279.405L1447.82,324.873C1424.93,357.433 1408.16,393.028 1398.17,430.285L1325.09,430.324C1312.9,484.246 1312.9,539.754 1325.09,593.676L1398.17,593.715C1408.16,630.972 1424.93,666.567 1447.82,699.127L1396.18,744.595C1430.91,790.308 1475.54,829.558 1527.52,860.103L1579.22,814.689C1616.24,834.818 1656.72,849.562 1699.08,858.352L1699.13,922.615C1760.44,933.341 1823.56,933.341 1884.87,922.615L1884.92,858.352C1927.28,849.562 1967.76,834.818 2004.78,814.689L2056.48,860.103C2108.46,829.558 2153.09,790.308 2187.82,744.595L2136.18,699.127C2159.07,666.567 2175.84,630.972 2185.83,593.715L2258.91,593.676C2271.1,539.754 2271.1,484.246 2258.91,430.324L2185.83,430.285C2175.84,393.028 2159.07,357.433 2136.18,324.873L2187.82,279.405C2153.09,233.692 2108.46,194.442 2056.48,163.897L2004.78,209.311C1967.76,189.182 1927.28,174.438 1884.92,165.648L1884.87,101.385ZM1792,419.447C1850.08,419.447 1897.24,460.919 1897.24,512C1897.24,563.081 1850.08,604.553 1792,604.553C1733.92,604.553 1686.76,563.081 1686.76,512C1686.76,460.919 1733.92,419.447 1792,419.447Z" style="fill:rgb(235,235,235);"/>
                    <path d="M1884.87,101.385C1823.56,90.659 1760.44,90.659 1699.13,101.385L1699.08,165.648C1656.72,174.438 1616.24,189.182 1579.22,209.311L1527.52,163.897C1475.54,194.442 1430.91,233.692 1396.18,279.405L1447.82,324.873C1424.93,357.433 1408.16,393.028 1398.17,430.285L1325.09,430.324C1312.9,484.246 1312.9,539.754 1325.09,593.676L1398.17,593.715C1408.16,630.972 1424.93,666.567 1447.82,699.127L1396.18,744.595C1430.91,790.308 1475.54,829.558 1527.52,860.103L1579.22,814.689C1616.24,834.818 1656.72,849.562 1699.08,858.352L1699.13,922.615C1760.44,933.341 1823.56,933.341 1884.87,922.615L1884.92,858.352C1927.28,849.562 1967.76,834.818 2004.78,814.689L2056.48,860.103C2108.46,829.558 2153.09,790.308 2187.82,744.595L2136.18,699.127C2159.07,666.567 2175.84,630.972 2185.83,593.715L2258.91,593.676C2271.1,539.754 2271.1,484.246 2258.91,430.324L2185.83,430.285C2175.84,393.028 2159.07,357.433 2136.18,324.873L2187.82,279.405C2153.09,233.692 2108.46,194.442 2056.48,163.897L2004.78,209.311C1967.76,189.182 1927.28,174.438 1884.92,165.648L1884.87,101.385ZM1822.92,148.87L1822.96,208.803L1870.68,218.704C1906.56,226.148 1940.83,238.633 1972.18,255.679L2013.89,278.355L2062.11,236.001C2077.75,247.843 2092.37,260.697 2105.84,274.456C2105.84,274.456 2057.68,316.86 2057.68,316.86L2083.46,353.538C2102.84,381.111 2117.04,411.253 2125.5,442.803L2136.76,484.773L2204.91,484.808C2206.45,502.911 2206.45,521.089 2204.91,539.192C2204.91,539.192 2136.76,539.227 2136.76,539.227L2125.5,581.197C2117.04,612.747 2102.84,642.889 2083.46,670.462L2057.68,707.14L2105.84,749.544C2092.37,763.303 2077.75,776.157 2062.11,787.999C2062.11,787.999 2013.89,745.645 2013.89,745.645L1972.18,768.321C1940.83,785.367 1906.56,797.852 1870.68,805.296L1822.96,815.197L1822.92,875.13C1802.34,876.486 1781.66,876.486 1761.08,875.13C1761.08,875.13 1761.04,815.197 1761.04,815.197L1713.32,805.296C1677.44,797.852 1643.17,785.367 1611.82,768.321L1570.11,745.645L1521.89,787.999C1506.25,776.157 1491.63,763.303 1478.16,749.544C1478.16,749.544 1526.33,707.14 1526.33,707.14L1500.54,670.462C1481.16,642.889 1466.96,612.747 1458.5,581.197L1447.24,539.227L1379.09,539.192C1377.55,521.089 1377.55,502.911 1379.09,484.808C1379.09,484.808 1447.24,484.773 1447.24,484.773L1458.5,442.803C1466.96,411.253 1481.16,381.111 1500.54,353.538L1526.33,316.86L1478.16,274.456C1491.63,260.697 1506.25,247.843 1521.89,236.001C1521.89,236.001 1570.11,278.355 1570.11,278.355L1611.82,255.679C1643.17,238.633 1677.44,226.148 1713.32,218.704L1761.04,208.803L1761.08,148.87C1781.66,147.514 1802.34,147.514 1822.92,148.87L1822.92,148.87ZM1792,364.934C1699.7,364.934 1624.77,430.832 1624.77,512C1624.77,593.168 1699.7,659.066 1792,659.066C1884.3,659.066 1959.23,593.168 1959.23,512C1959.23,430.832 1884.3,364.934 1792,364.934ZM1792,419.447C1850.08,419.447 1897.24,460.919 1897.24,512C1897.24,563.081 1850.08,604.553 1792,604.553C1733.92,604.553 1686.76,563.081 1686.76,512C1686.76,460.919 1733.92,419.447 1792,419.447Z" style="fill:rgb(57,57,57);"/>
                </g>
            </g>
        </g>
    </g>
</svg>
